<svg width="80" height="80" viewBox="0 0 80 80" fill="none" xmlns="http://www.w3.org/2000/svg">
<rect width="80" height="80" rx="24" fill="#A6D96A"/>
<path d="M30 25V28.75C30 30.8175 31.6825 32.5 33.75 32.5H46.25C48.3175 32.5 50 30.8175 50 28.75V25H53.5C54.9025 25 56 26.0975 56 27.5V57.5C56 58.9025 54.9025 60 53.5 60H26.5C25.0975 60 24 58.9025 24 57.5V27.5C24 26.1225 25.1225 25 26.5 25H30ZM37.6328 46.3672C37.1454 45.8798 36.3528 45.88 35.8652 46.3672L31.75 50.4824L30.1328 48.8672C29.6454 48.3798 28.8528 48.38 28.3652 48.8672C27.8777 49.3547 27.8777 50.1473 28.3652 50.6348L30.8652 53.1348C31.1102 53.3773 31.43 53.5 31.75 53.5C32.07 53.5 32.3898 53.3773 32.6348 53.1348L37.6348 48.1348C38.1223 47.6448 38.1203 46.8547 37.6328 46.3672ZM42.75 48.5C42.06 48.5 41.5 49.06 41.5 49.75C41.5 50.44 42.06 51 42.75 51H50.75C51.44 51 52 50.44 52 49.75C52 49.06 51.44 48.5 50.75 48.5H42.75ZM37.6328 36.3672C37.1454 35.8798 36.3528 35.88 35.8652 36.3672L31.75 40.4824L30.1328 38.8672C29.6454 38.3798 28.8528 38.38 28.3652 38.8672C27.8777 39.3547 27.8777 40.1473 28.3652 40.6348L30.8652 43.1348C31.1102 43.3773 31.43 43.5 31.75 43.5C32.07 43.5 32.3898 43.3773 32.6348 43.1348L37.6348 38.1348C38.1223 37.6448 38.1203 36.8547 37.6328 36.3672ZM42.75 38.5C42.06 38.5 41.5 39.06 41.5 39.75C41.5 40.44 42.06 41 42.75 41H50.75C51.44 41 52 40.44 52 39.75C52 39.06 51.44 38.5 50.75 38.5H42.75ZM40 20C41.63 20 43.0202 21.045 43.5352 22.5H46.25C46.94 22.5 47.5 23.06 47.5 23.75V28.75C47.5 29.44 46.94 30 46.25 30H33.75C33.06 30 32.5 29.44 32.5 28.75V23.75C32.5 23.06 33.06 22.5 33.75 22.5H36.4629C36.9804 21.0451 38.37 20 40 20Z" fill="#18392B"/>
</svg>
