<svg width="20" height="20" viewBox="0 0 20 20" fill="none" xmlns="http://www.w3.org/2000/svg">
<g clip-path="url(#clip0_420_73810)">
<path d="M1.41919 10.0001C1.41919 13.3957 3.39258 16.3301 6.25416 17.7207L2.16193 6.50879C1.68592 7.57569 1.41919 8.75637 1.41919 10.0001Z" fill="#0B2518"/>
<path d="M15.7912 9.56728C15.7912 8.50708 15.4104 7.77285 15.0837 7.20136C14.6489 6.49472 14.2413 5.8963 14.2413 5.18966C14.2413 4.40107 14.8394 3.667 15.6819 3.667C15.7199 3.667 15.756 3.67174 15.793 3.67386C14.2667 2.27559 12.2333 1.42188 9.99984 1.42188C7.00278 1.42188 4.36599 2.95955 2.83203 5.28858C3.0333 5.29462 3.22299 5.29886 3.3841 5.29886C4.28143 5.29886 5.67043 5.18998 5.67043 5.18998C6.13288 5.16272 6.1874 5.84194 5.72544 5.89663C5.72544 5.89663 5.2607 5.95131 4.74356 5.97841L7.86762 15.2705L9.74503 9.64009L8.40843 5.97808C7.94646 5.95098 7.50882 5.8963 7.50882 5.8963C7.04653 5.8692 7.10072 5.1624 7.56301 5.18966C7.56301 5.18966 8.97976 5.29853 9.82273 5.29853C10.7199 5.29853 12.109 5.18966 12.109 5.18966C12.5718 5.1624 12.6262 5.84162 12.1641 5.8963C12.1641 5.8963 11.6983 5.95098 11.1822 5.97808L14.2824 15.1999L15.1381 12.3405C15.509 11.1539 15.7912 10.3017 15.7912 9.56728Z" fill="#0B2518"/>
<path d="M10.1521 10.75L7.57812 18.2292C8.34665 18.4552 9.15942 18.5787 10.0016 18.5787C11.0006 18.5787 11.9586 18.406 12.8504 18.0925C12.8274 18.0557 12.8065 18.0167 12.7894 17.9743L10.1521 10.75Z" fill="#0B2518"/>
<path d="M17.5248 5.88379C17.5617 6.15704 17.5826 6.45038 17.5826 6.76591C17.5826 7.63644 17.42 8.61503 16.9303 9.83864L14.3098 17.4148C16.8603 15.9276 18.5757 13.1645 18.5757 9.99975C18.5759 8.50828 18.1949 7.10576 17.5248 5.88379Z" fill="#0B2518"/>
<path d="M10.0003 0C4.48629 0 0 4.48585 0 9.99975C0 15.5143 4.48629 20 10.0003 20C15.5142 20 20.0011 15.5143 20.0011 9.99975C20.001 4.48585 15.5142 0 10.0003 0ZM10.0003 19.5416C4.73914 19.5416 0.458537 15.2611 0.458537 9.99975C0.458537 4.7387 4.73898 0.458526 10.0003 0.458526C15.2613 0.458526 19.5416 4.7387 19.5416 9.99975C19.5416 15.2611 15.2613 19.5416 10.0003 19.5416Z" fill="#0B2518"/>
</g>
<defs>
<clipPath id="clip0_420_73810">
<rect width="20" height="20" fill="white"/>
</clipPath>
</defs>
</svg>
