<svg width="28" height="28" viewBox="0 0 28 28" fill="none" xmlns="http://www.w3.org/2000/svg">
<g clip-path="url(#clip0_2065_552)">
<path d="M28 14C28 16.7689 27.1789 19.4757 25.6406 21.778C24.1022 24.0803 21.9157 25.8747 19.3576 26.9343C16.7994 27.9939 13.9845 28.2712 11.2687 27.731C8.55301 27.1908 6.05845 25.8574 4.10051 23.8995C2.14258 21.9416 0.809206 19.447 0.269012 16.7313C-0.271181 14.0155 0.006066 11.2006 1.06569 8.64243C2.12532 6.08427 3.91973 3.89777 6.22202 2.35943C8.52431 0.821086 11.2311 0 14 0C17.7118 0.0040146 21.2704 1.4803 23.8951 4.10494C26.5197 6.72958 27.996 10.2882 28 14ZM15.1667 5.83333H12.8333V17.5H15.1667V5.83333ZM15.1667 19.8333H12.8333V22.1667H15.1667V19.8333Z" fill="white"/>
</g>
<defs>
<clipPath id="clip0_2065_552">
<rect width="28" height="28" fill="white"/>
</clipPath>
</defs>
</svg>
